<svg t="1611297907643" class="icon" viewBox="0 0 1024 1024" version="1.1" xmlns="http://www.w3.org/2000/svg" p-id="4207" width="48" height="48"><path d="M164.592 786.848l56.56 56.56 147.088-147.072-56.576-56.576-147.072 147.088z m678.816-565.696l-56.56-56.56-147.088 147.072 56.56 56.576 147.088-147.088z m-678.816 0l147.088 147.088 56.56-56.56-147.088-147.088-56.56 56.56zM272 464H64v80h208v-80z m367.76 232.32l147.088 147.088 56.56-56.56-147.072-147.088-56.576 56.56zM464 944h80V736h-80v208z m272-480v80h208v-80H736zM464 272h80V64h-80v208z" fill="#565D64" p-id="4208" data-spm-anchor-id="a313x.7781069.0.i0"></path></svg>